<svg xmlns="http://www.w3.org/2000/svg" xmlns:xlink="http://www.w3.org/1999/xlink" viewBox="0,0,256,256" width="16px" height="16px" fill-rule="nonzero"><g fill="none" fill-rule="nonzero" stroke="none" stroke-width="1" stroke-linecap="butt" stroke-linejoin="miter" stroke-miterlimit="10" stroke-dasharray="" stroke-dashoffset="0" font-family="none" font-weight="none" font-size="none" text-anchor="none" style="mix-blend-mode: normal"><g transform="scale(3.2,3.2)"><path d="M20.926,75.5c-9.057,0 -16.426,-7.369 -16.426,-16.426v-38.148c0,-9.057 7.369,-16.426 16.426,-16.426h38.148c9.057,0 16.426,7.369 16.426,16.426v38.148c0,9.057 -7.369,16.426 -16.426,16.426zM24.016,17.5c-3.593,0 -6.516,2.923 -6.516,6.516v31.968c0,3.593 2.923,6.516 6.516,6.516h31.968c3.593,0 6.516,-2.923 6.516,-6.516v-31.968c0,-3.593 -2.922,-6.516 -6.514,-6.516z" fill="#77e69d"></path><path d="M59.074,5c8.782,0 15.926,7.144 15.926,15.926v38.148c0,8.782 -7.144,15.926 -15.926,15.926h-38.148c-8.782,0 -15.926,-7.144 -15.926,-15.926v-38.148c0,-8.782 7.144,-15.926 15.926,-15.926h38.148M24.016,63h31.968c3.869,0 7.016,-3.147 7.016,-7.016v-31.968c0,-3.869 -3.146,-7.016 -7.014,-7.016h-31.97c-3.869,0 -7.016,3.147 -7.016,7.016v31.968c0,3.869 3.147,7.016 7.016,7.016M59.074,4h-38.148c-9.348,0 -16.926,7.578 -16.926,16.926v38.148c0,9.348 7.578,16.926 16.926,16.926h38.148c9.348,0 16.926,-7.578 16.926,-16.926v-38.148c0,-9.348 -7.578,-16.926 -16.926,-16.926zM24.016,62c-3.324,0 -6.016,-2.692 -6.016,-6.016v-31.968c0,-3.324 2.692,-6.016 6.016,-6.016h31.97c3.322,0 6.014,2.692 6.014,6.016v31.968c0,3.324 -2.692,6.016 -6.016,6.016h-31.968z" fill="#66798f"></path><g><rect x="30.5" y="30.5" width="19" height="19" fill="#77e69d"></rect><path d="M49,31v18h-18v-18h18M50,30h-20v20h20v-20z" fill="#66798f"></path></g></g></g></svg>